<?xml version="1.0" encoding="iso-8859-1"?>
<!-- Generator: Adobe Illustrator 19.0.0, SVG Export Plug-In . SVG Version: 6.00 Build 0)  -->
<svg version="1.1" id="Capa_1" xmlns="http://www.w3.org/2000/svg" xmlns:xlink="http://www.w3.org/1999/xlink" x="0px" y="0px"
	 viewBox="0 0 512 512" style="enable-background:new 0 0 512 512;" xml:space="preserve">
<g>
	<g>
		<path d="M465.784,163.666L444.571,15.173c-0.804-5.624-4.716-10.312-10.106-12.109c-5.389-1.797-11.333-0.394-15.35,3.624
			l-30.882,30.881C347.644,12.952,302.186,0,256.016,0C117.023,0,3.534,111.779,0.096,249.523
			c-0.19,7.605,5.342,14.148,12.873,15.224l59.94,8.567c4.339,0.619,8.732-0.688,12.026-3.583c3.292-2.895,5.154-7.084,5.095-11.468
			C88.794,166.495,163.843,91,256.016,91c22.789,0,45.126,4.526,65.586,13.201l-29.766,29.766c-4.018,4.018-5.421,9.96-3.624,15.35
			s6.484,9.302,12.109,10.106l148.492,21.213c4.675,0.67,9.39-0.904,12.728-4.242C464.88,173.055,466.451,168.34,465.784,163.666z
			 M334.263,133.967l23.263-23.263c3.296-3.296,4.872-7.935,4.267-12.556c-0.605-4.621-3.325-8.698-7.358-11.032
			C324.918,70.031,290.885,61,256.016,61C152.474,61,68.099,141.369,60.57,241.245l-29.755-4.252
			C40.582,121.688,138.927,30,256.016,30c44.201,0,87.756,13.538,125.955,39.15c5.951,3.99,13.893,3.215,18.96-1.852l18.185-18.184
			l14.142,98.995L334.263,133.967z"/>
	</g>
</g>
<g>
	<g>
		<path d="M499.029,248.416l-59.897-8.556c-8.272-1.183-17.164,4.559-17.116,16.14c0,90.981-74.467,165-166,165
			c-22.676,0-44.91-4.482-65.287-13.074l28.812-28.812c4.018-4.018,5.42-9.96,3.624-15.35c-1.797-5.39-6.485-9.302-12.109-10.106
			L62.563,332.445c-4.671-0.668-9.389,0.904-12.728,4.242c-3.339,3.339-4.911,8.054-4.243,12.728l21.213,148.492
			c0.803,5.625,4.716,10.312,10.106,12.109c5.39,1.796,11.332,0.394,15.35-3.624l31.639-31.639
			C163.97,498.845,210.411,512,256.016,512c138.174,0,251.797-110.745,255.886-248.289
			C512.129,256.08,506.587,249.496,499.029,248.416z M256.016,482c-40.639,0-82.096-11.891-117.789-33.64
			c-0.722-2.047-1.901-3.969-3.539-5.606c-5.857-5.858-15.355-5.858-21.213,0l-0.589,0.589c-1.3,0.93-2.471,2.085-3.451,3.451
			l-17.173,17.174L78.12,364.972l98.995,14.142l-22.338,22.338c-3.299,3.299-4.875,7.944-4.265,12.569s3.337,8.702,7.379,11.032
			C187.332,442.028,221.263,451,256.016,451c102.65,0,187.234-79.293,195.355-179.087l29.745,4.249
			C470.784,390.833,372.501,482,256.016,482z"/>
	</g>
</g>
<g>
</g>
<g>
</g>
<g>
</g>
<g>
</g>
<g>
</g>
<g>
</g>
<g>
</g>
<g>
</g>
<g>
</g>
<g>
</g>
<g>
</g>
<g>
</g>
<g>
</g>
<g>
</g>
<g>
</g>
</svg>
